<svg xmlns="http://www.w3.org/2000/svg" viewBox="0 0 64 64">
  <defs>
    <linearGradient id="g" x1="0%" y1="0%" x2="100%" y2="100%">
      <stop offset="0%" style="stop-color:#4A6FA5"/>
      <stop offset="100%" style="stop-color:#6B9080"/>
    </linearGradient>
  </defs>
  <circle cx="32" cy="32" r="30" fill="url(#g)" opacity="0.9"/>
  <path d="M32 16c-8 0-14 6-14 13 0 4 2 7.5 5 10v7l5-3c1.3.3 2.6.5 4 .5s2.7-.2 4-.5l5 3v-7c3-2.5 5-6 5-10 0-7-6-13-14-13z" fill="white" opacity="0.95"/>
  <circle cx="26" cy="28" r="2" fill="#4A6FA5"/>
  <circle cx="38" cy="28" r="2" fill="#4A6FA5"/>
  <path d="M26 33c0 0 3 4 6 4s6-4 6-4" stroke="#4A6FA5" stroke-width="1.5" fill="none" stroke-linecap="round"/>
</svg>
